<svg width="232" height="37" viewBox="0 0 232 37" fill="none" xmlns="http://www.w3.org/2000/svg">
<path d="M47.096 2.496L37.736 36H29.816L23.528 12.144L16.952 36L9.08 36.048L0.0560001 2.496H7.256L13.16 28.512L19.976 2.496H27.464L33.896 28.368L39.848 2.496H47.096ZM49.7559 22.608C49.7559 19.92 50.2839 17.536 51.3399 15.456C52.4279 13.376 53.8839 11.776 55.7079 10.656C57.5639 9.536 59.6279 8.976 61.8999 8.976C63.8839 8.976 65.6119 9.376 67.0839 10.176C68.5879 10.976 69.7879 11.984 70.6839 13.2V9.408H77.4519V36H70.6839V32.112C69.8199 33.36 68.6199 34.4 67.0839 35.232C65.5799 36.032 63.8359 36.432 61.8519 36.432C59.6119 36.432 57.5639 35.856 55.7079 34.704C53.8839 33.552 52.4279 31.936 51.3399 29.856C50.2839 27.744 49.7559 25.328 49.7559 22.608ZM70.6839 22.704C70.6839 21.072 70.3639 19.68 69.7239 18.528C69.0839 17.344 68.2199 16.448 67.1319 15.84C66.0439 15.2 64.8759 14.88 63.6279 14.88C62.3799 14.88 61.2279 15.184 60.1719 15.792C59.1159 16.4 58.2519 17.296 57.5799 18.48C56.9399 19.632 56.6199 21.008 56.6199 22.608C56.6199 24.208 56.9399 25.616 57.5799 26.832C58.2519 28.016 59.1159 28.928 60.1719 29.568C61.2599 30.208 62.4119 30.528 63.6279 30.528C64.8759 30.528 66.0439 30.224 67.1319 29.616C68.2199 28.976 69.0839 28.08 69.7239 26.928C70.3639 25.744 70.6839 24.336 70.6839 22.704ZM91.8391 14.928V27.792C91.8391 28.688 92.0471 29.344 92.4631 29.76C92.9111 30.144 93.6471 30.336 94.6711 30.336H97.7911V36H93.5671C87.9031 36 85.0711 33.248 85.0711 27.744V14.928H81.9031V9.408H85.0711V2.832H91.8391V9.408H97.7911V14.928H91.8391ZM100.896 22.704C100.896 19.952 101.457 17.552 102.577 15.504C103.697 13.424 105.249 11.824 107.233 10.704C109.217 9.552 111.489 8.976 114.049 8.976C117.345 8.976 120.065 9.808 122.209 11.472C124.385 13.104 125.841 15.408 126.577 18.384H119.329C118.945 17.232 118.289 16.336 117.361 15.696C116.465 15.024 115.345 14.688 114.001 14.688C112.081 14.688 110.561 15.392 109.441 16.8C108.321 18.176 107.761 20.144 107.761 22.704C107.761 25.232 108.321 27.2 109.441 28.608C110.561 29.984 112.081 30.672 114.001 30.672C116.721 30.672 118.497 29.456 119.329 27.024H126.577C125.841 29.904 124.385 32.192 122.209 33.888C120.033 35.584 117.313 36.432 114.049 36.432C111.489 36.432 109.217 35.872 107.233 34.752C105.249 33.6 103.697 32 102.577 29.952C101.457 27.872 100.896 25.456 100.896 22.704ZM146.476 9.024C148.492 9.024 150.284 9.472 151.852 10.368C153.42 11.232 154.636 12.528 155.5 14.256C156.396 15.952 156.844 18 156.844 20.4V36H150.124V21.312C150.124 19.2 149.596 17.584 148.54 16.464C147.484 15.312 146.044 14.736 144.22 14.736C142.364 14.736 140.892 15.312 139.804 16.464C138.748 17.584 138.22 19.2 138.22 21.312V36H131.5V0.48H138.22V12.72C139.084 11.568 140.236 10.672 141.676 10.032C143.116 9.36 144.716 9.024 146.476 9.024Z" fill="#FAE800"/>
<path d="M199.762 2.496V36H193.042V14.208L184.066 36H178.978L169.954 14.208V36H163.234V2.496H170.866L181.522 27.408L192.178 2.496H199.762ZM231.126 22.128C231.126 23.088 231.062 23.952 230.934 24.72H211.494C211.654 26.64 212.326 28.144 213.51 29.232C214.694 30.32 216.15 30.864 217.878 30.864C220.374 30.864 222.15 29.792 223.206 27.648H230.454C229.686 30.208 228.214 32.32 226.038 33.984C223.862 35.616 221.19 36.432 218.022 36.432C215.462 36.432 213.158 35.872 211.11 34.752C209.094 33.6 207.51 31.984 206.358 29.904C205.238 27.824 204.678 25.424 204.678 22.704C204.678 19.952 205.238 17.536 206.358 15.456C207.478 13.376 209.046 11.776 211.062 10.656C213.078 9.536 215.398 8.976 218.022 8.976C220.55 8.976 222.806 9.52 224.79 10.608C226.806 11.696 228.358 13.248 229.446 15.264C230.566 17.248 231.126 19.536 231.126 22.128ZM224.166 20.208C224.134 18.48 223.51 17.104 222.294 16.08C221.078 15.024 219.59 14.496 217.83 14.496C216.166 14.496 214.758 15.008 213.606 16.032C212.486 17.024 211.798 18.416 211.542 20.208H224.166Z" fill="#FBFBFB"/>
</svg>
